<svg xmlns="http://www.w3.org/2000/svg" width="980" height="540" viewBox="0 0 980 540">
<rect width="100%" height="100%" fill="#f7f4ed"/><text x="30" y="32" font-family="sans-serif" font-size="20" font-weight="bold">Plan 009 pane-capture coupons v0.1</text>
<g transform="translate(45 70)"><text x="0" y="-12" font-family="sans-serif" font-size="15">Full-length mechanics coupon — top view</text><rect x="0" y="0" width="186" height="500" rx="10" fill="#d8d1c2" stroke="#222" stroke-width="2"/><rect x="18" y="15" width="150" height="465" fill="#9ed5e5" stroke="#174c5b"/><rect x="0" y="0" width="186" height="24" fill="#c5bdac" stroke="#222"/><line x1="8" y1="39" x2="178" y2="39" stroke="#b22" stroke-width="6"/><rect x="15" y="43" width="156" height="8" fill="#e7a84f" stroke="#6d4610"/><text x="205" y="42" font-family="sans-serif" font-size="14">1.75 mm cross-pin</text><text x="205" y="62" font-family="sans-serif" font-size="14">printed end gate</text><text x="205" y="105" font-family="sans-serif" font-size="14">pane slides into continuous side rails</text><text x="205" y="470" font-family="sans-serif" font-size="14">solid far stop</text></g>
<g transform="translate(510 100)"><text x="0" y="-20" font-family="sans-serif" font-size="15">Rail cross-section</text><path d="M0 190 L0 0 L72 0 L72 50 L48 50 L48 150 L100 150 L100 190 Z" fill="#d8d1c2" stroke="#222" stroke-width="2"/><path d="M260 190 L260 0 L188 0 L188 50 L212 50 L212 150 L160 150 L160 190 Z" fill="#d8d1c2" stroke="#222" stroke-width="2"/><rect x="52" y="88" width="156" height="45" fill="#9ed5e5" stroke="#174c5b"/><text x="82" y="115" font-family="sans-serif" font-size="14">glass or plastic pane</text><line x1="130" y1="150" x2="130" y2="182" stroke="#777" stroke-width="8"/><text x="285" y="178" font-family="sans-serif" font-size="14">optional spacer controls play</text><text x="0" y="230" font-family="sans-serif" font-size="14">Roof rails prevent upward escape. Gate + pin prevent axial escape.</text></g>
<g transform="translate(510 385)"><text x="0" y="0" font-family="sans-serif" font-size="15" font-weight="bold">Print order</text><text x="0" y="28" font-family="sans-serif" font-size="14">1. Pin-bore ladder (2.05 / 2.15 / 2.25 mm)</text><text x="0" y="53" font-family="sans-serif" font-size="14">2. Channel ladder (1.4 / 1.8 / 2.2 mm)</text><text x="0" y="78" font-family="sans-serif" font-size="14">3. Full frame + gate; spacers only if needed</text><text x="0" y="112" font-family="sans-serif" font-size="13" fill="#9b2020">Provisional mechanics coupon; not an envelope-compatible lid.</text></g></svg>